<?xml version="1.0" encoding="utf-8"?>
<!-- Generator: Adobe Illustrator 24.3.0, SVG Export Plug-In . SVG Version: 6.00 Build 0)  -->
<svg version="1.1" id="Layer_1" xmlns="http://www.w3.org/2000/svg" xmlns:xlink="http://www.w3.org/1999/xlink" x="0px" y="0px"
	 viewBox="0 0 152 41" style="enable-background:new 0 0 152 41;" xml:space="preserve">
<style type="text/css">
	.st0{fill-rule:evenodd;clip-rule:evenodd;fill:#EBECF2;}
</style>
<desc>Created with Sketch.</desc>
<g id="Page-1">
	<g id="Desktop-HD" transform="translate(-791.000000, -929.000000)">
		<g id="logo-7" transform="translate(791.000000, 929.000000)">
			<path id="Fill-35" class="st0" d="M17.8,21.6v-2.8c0-1.3,1-2.3,2.3-2.3c1.3,0,2.3,1.1,2.3,2.3v2.8H17.8z M20.1,13.1
				c-3,0-5.5,2.3-5.7,5.3c0,0.1,0,0.2,0,0.2v7.8c0,0.9,0.8,1.7,1.7,1.7c0.9,0,1.7-0.8,1.7-1.7v-1.4h4.7v1.4c0,0.9,0.8,1.7,1.7,1.7
				s1.7-0.8,1.7-1.7v-7.8c0-0.1,0-0.2,0-0.2C25.6,15.4,23.1,13.1,20.1,13.1L20.1,13.1z"/>
			<path id="Fill-36" class="st0" d="M20.1,37.4c-9.2,0-16.7-7.5-16.7-16.8S10.9,3.8,20.1,3.8s16.7,7.5,16.7,16.8
				S29.4,37.4,20.1,37.4 M20.1,0.4C9,0.4,0,9.5,0,20.6s9,20.2,20.1,20.2s20.1-9.1,20.1-20.2S31.3,0.4,20.1,0.4"/>
			<path id="Fill-37" class="st0" d="M59.5,21.6v-2.8c0-1.3,1-2.3,2.3-2.3c1.3,0,2.3,1.1,2.3,2.3v2.8H59.5z M61.8,13.1
				c-3,0-5.5,2.3-5.7,5.3c0,0.1,0,0.2,0,0.2v7.8c0,0.9,0.8,1.7,1.7,1.7c0.9,0,1.7-0.8,1.7-1.7v-1.4h4.7v1.4c0,0.9,0.8,1.7,1.7,1.7
				c0.9,0,1.7-0.8,1.7-1.7v-7.8c0-0.1,0-0.2,0-0.2C67.3,15.4,64.8,13.1,61.8,13.1L61.8,13.1z"/>
			<path id="Fill-38" class="st0" d="M96.8,13.1c-1.6,0-3,0.6-4,1.7c-1-1-2.5-1.7-4-1.7c-3,0-5.5,2.3-5.7,5.3c0,0.1,0,0.2,0,0.2v7.8
				c0,0.9,0.8,1.7,1.7,1.7s1.7-0.8,1.7-1.7v-7.6c0-1.3,1-2.3,2.3-2.3c1.3,0,2.3,1.1,2.3,2.3V23c0,0.9,0.8,1.7,1.7,1.7
				c0.9,0,1.7-0.8,1.7-1.7v-4.2c0-1.3,1-2.3,2.3-2.3c1.3,0,2.3,1.1,2.3,2.3v7.6c0,0.9,0.8,1.7,1.7,1.7c0.9,0,1.7-0.8,1.7-1.7v-7.8
				c0-0.1,0-0.2,0-0.2C102.2,15.4,99.8,13.1,96.8,13.1"/>
			<path id="Fill-39" class="st0" d="M79.8,23.1c-0.8-0.5-1.9-0.2-2.3,0.6c-0.4,0.7-1.2,1.2-2,1.2c-1.3,0-2.3-1.1-2.3-2.3v-3.6
				c0,0,0,0,0,0c0-1.3,1-2.3,2.3-2.3c0.8,0,1.5,0.4,1.9,1c0.3,0.5,0.9,0.8,1.4,0.8c0.3,0,0.7-0.1,1-0.3c0.8-0.5,1-1.6,0.5-2.4
				c-1.1-1.6-2.8-2.5-4.8-2.5c-3,0-5.4,2.3-5.7,5.2c0,0.1,0,0.2,0,0.3V23c0,0.2,0,0.4,0.1,0.6c0.5,2.7,2.8,4.7,5.6,4.7
				c2,0,3.9-1.1,5-2.9C80.9,24.6,80.6,23.5,79.8,23.1"/>
			<path id="Fill-40" class="st0" d="M137.6,23c-0.8-0.5-1.9-0.2-2.3,0.6c-0.4,0.7-1.2,1.2-2,1.2c-1.3,0-2.3-1.1-2.3-2.3v-3.6
				c0,0,0,0,0,0c0-1.3,1-2.3,2.3-2.3c0.8,0,1.5,0.4,1.9,1c0.3,0.5,0.9,0.8,1.4,0.8c0.3,0,0.7-0.1,1-0.3c0.8-0.5,1-1.6,0.5-2.4
				c-1.1-1.6-2.8-2.5-4.8-2.5c-3,0-5.4,2.3-5.7,5.2c0,0.1,0,0.2,0,0.3V23c0,0.2,0,0.4,0.1,0.6c0.5,2.7,2.8,4.7,5.6,4.7
				c2,0,3.9-1.1,5-2.9C138.7,24.5,138.4,23.5,137.6,23"/>
			<path id="Fill-41" class="st0" d="M146.1,24.8C146,24.8,146,24.8,146.1,24.8c-1.3,0-2.3-1.1-2.3-2.3v-3.7c0-1.3,1-2.3,2.3-2.3
				c0.8,0,1.5,0.4,1.9,1c0.3,0.4,0.4,0.8,0.4,1.3v3.6c0,0.5-0.1,0.9-0.4,1.3C147.6,24.4,146.8,24.8,146.1,24.8 M151.8,18.4
				C151.8,18.4,151.8,18.3,151.8,18.4c0-0.1,0-0.1,0-0.2c-0.1-0.9-0.4-1.8-0.9-2.6c-1.1-1.6-2.8-2.5-4.8-2.5c-3,0-5.4,2.3-5.7,5.2
				c0,0.1,0,0.2,0,0.3V23c0,0.2,0,0.4,0.1,0.6c0.5,2.7,2.8,4.7,5.6,4.7c0.1,0,0.1,0,0.2,0c1.8-0.1,3.5-1,4.6-2.5
				c0.4-0.6,0.7-1.4,0.9-2.1c0.1-0.2,0.1-0.4,0.1-0.6v-4.4C151.8,18.5,151.8,18.4,151.8,18.4"/>
			<path id="Fill-42" class="st0" d="M113,18.4h-4.6c0.2-1.1,1.1-2,2.3-2c0.8,0,1.5,0.4,1.9,1C112.8,17.8,113,18.1,113,18.4
				 M115.5,15.6c-1.1-1.6-2.8-2.5-4.8-2.5c-3,0-5.5,2.4-5.7,5.4c0,0.1,0,0.1,0,0.2V23c0,0.2,0.1,0.5,0.1,0.7
				c0.6,2.6,2.9,4.5,5.6,4.5c0,0,0,0,0,0c2,0,3.9-1.1,5-2.9c0.5-0.8,0.2-1.9-0.6-2.3c-0.8-0.5-1.9-0.2-2.3,0.6
				c-0.4,0.7-1.2,1.2-2,1.2c0,0,0,0,0,0c-1.3,0-2.3-1.1-2.3-2.3v-0.6h6.4c0.9,0,1.7-0.8,1.7-1.7v-2c0-0.3-0.1-0.5-0.2-0.7
				C116.1,16.8,115.9,16.2,115.5,15.6"/>
		</g>
	</g>
</g>
</svg>
