<?xml version="1.0" encoding="utf-8"?>
<!-- Generator: Adobe Illustrator 24.3.0, SVG Export Plug-In . SVG Version: 6.00 Build 0)  -->
<svg version="1.1" id="Layer_1" xmlns="http://www.w3.org/2000/svg" xmlns:xlink="http://www.w3.org/1999/xlink" x="0px" y="0px"
	 viewBox="0 0 148 50" style="enable-background:new 0 0 148 50;" xml:space="preserve">
<style type="text/css">
	.st0{fill-rule:evenodd;clip-rule:evenodd;fill:#EBECF2;}
</style>
<desc>Created with Sketch.</desc>
<g id="Page-1">
	<g id="Desktop-HD" transform="translate(-1112.000000, -925.000000)">
		<g id="logo-8" transform="translate(1112.000000, 925.000000)">
			<path id="Fill-96" class="st0" d="M11.2,35.9l5.4-5.5h11l4.2,14.9L11.2,35.9z M3.6,16.9l10.1,1.3V29c0,0.1,0,0.2,0,0.3l-4.8,4.8
				L3.6,16.9z M13.7,15.4l-9-1.2l9-9.1V15.4z M33.5,8.3l-8.3,8.5l-8.6-1.1V3.7L33.5,8.3z M16.5,27.6v-9l8,1l2.2,7.9H16.5z
				 M40.2,27.6H29.8l-2.5-8.8l8.3-8.5L40.2,27.6z M34.3,43.7l-3.7-13.2h9.3L34.3,43.7z M43.4,28.6L37.7,7.2c-0.1-0.5-0.5-0.9-1-1
				L15.5,0.4c-0.4-0.1-0.9,0-1.2,0.2c0,0,0,0-0.1,0.1l-0.1-0.1L0.6,14.2l0,0c0,0-0.1,0.1-0.1,0.1c-0.3,0.4-0.4,0.9-0.3,1.3l6.4,20.8
				c0.1,0.4,0.4,0.7,0.8,0.9l26,11.9c0.2,0.1,0.4,0.1,0.6,0.1c0.3,0,0.7-0.1,0.9-0.3c0.2-0.1,0.3-0.3,0.4-0.5l0,0l7.8-18.6
				c0,0,0,0,0,0C43.5,29.5,43.6,29,43.4,28.6L43.4,28.6z"/>
			<path id="Fill-97" class="st0" d="M66.6,20.5L64.3,27H69L66.6,20.5z M70.8,32.5l-0.9-2.6h-6.5l-1,2.6h-3.7l5.8-15.2h4l5.8,15.2
				H70.8z"/>
			<path id="Fill-98" class="st0" d="M83.4,24.9c0-4.7,3.5-7.9,8-7.9c3.3,0,5.2,1.8,6.3,3.7L95,22.1c-0.6-1.2-2-2.2-3.6-2.2
				c-2.7,0-4.7,2.1-4.7,5s2,5,4.7,5c1.6,0,2.9-1,3.6-2.2l2.8,1.3c-1.1,1.9-3,3.7-6.3,3.7C86.9,32.7,83.4,29.5,83.4,24.9"/>
			<polygon id="Fill-99" class="st0" points="121.9,32.5 121.9,21.8 117.6,32.5 116.2,32.5 111.9,21.8 111.9,32.5 108.7,32.5 
				108.7,17.2 113.2,17.2 116.9,26.4 120.6,17.2 125.1,17.2 125.1,32.5 			"/>
			<polygon id="Fill-100" class="st0" points="137.1,32.5 137.1,17.2 147.8,17.2 147.8,20.1 140.3,20.1 140.3,23.3 147.6,23.3 
				147.6,26.2 140.3,26.2 140.3,29.6 147.8,29.6 147.8,32.5 			"/>
		</g>
	</g>
</g>
</svg>
